<svg xmlns="http://www.w3.org/2000/svg" viewBox="0 0 256 256" role="img" aria-labelledby="title desc">
  <title id="title">Dazzler Renewables icon</title>
  <desc id="desc">A refined blue solar panel mark with a clean structural side shape.</desc>
  <defs>
    <linearGradient id="panelBlue" x1="29" y1="33" x2="188" y2="222" gradientUnits="userSpaceOnUse">
      <stop offset="0" stop-color="#41c4ee"/>
      <stop offset="0.55" stop-color="#1599d2"/>
      <stop offset="1" stop-color="#0878bd"/>
    </linearGradient>
    <linearGradient id="supportBlue" x1="135" y1="43" x2="225" y2="218" gradientUnits="userSpaceOnUse">
      <stop offset="0" stop-color="#0786c8"/>
      <stop offset="1" stop-color="#005fae"/>
    </linearGradient>
    <clipPath id="panelClip">
      <path d="M21 219 88 29h100l-68 190H21Z"/>
    </clipPath>
  </defs>

  <path fill="url(#supportBlue)" d="M152 42h75v177h-88v-34h35V86h-40l18-44Z"/>
  <path fill="#fff" d="M155 86h19v99h-35l16-99Z"/>
  <path fill="url(#panelBlue)" d="M21 219 88 29h100l-68 190H21Z"/>

  <g clip-path="url(#panelClip)" fill="none" stroke="#fff" stroke-linecap="square" stroke-width="5.2">
    <path d="M108 29 41 219"/>
    <path d="M128 29 61 219"/>
    <path d="M148 29 81 219"/>
    <path d="M168 29 101 219"/>
    <path d="M69 61h126"/>
    <path d="M57 93h127"/>
    <path d="M46 125h127"/>
    <path d="M35 157h127"/>
    <path d="M24 189h126"/>
  </g>
</svg>
