<svg xmlns="http://www.w3.org/2000/svg" viewBox="0 0 256 256" role="img" aria-labelledby="title desc">
  <title id="title">Dazzler Renewables icon</title>
  <desc id="desc">A refined navy solar panel mark with gold renewable accents.</desc>
  <defs>
    <linearGradient id="panel" x1="60" y1="36" x2="172" y2="221" gradientUnits="userSpaceOnUse">
      <stop offset="0" stop-color="#0f4d92"/>
      <stop offset="0.5" stop-color="#073a78"/>
      <stop offset="1" stop-color="#001f4c"/>
    </linearGradient>
    <linearGradient id="side" x1="142" y1="44" x2="218" y2="220" gradientUnits="userSpaceOnUse">
      <stop offset="0" stop-color="#083a73"/>
      <stop offset="1" stop-color="#001b45"/>
    </linearGradient>
    <clipPath id="panelClip">
      <path d="M37 221 101 37h91l-65 184H37Z"/>
    </clipPath>
  </defs>

  <path fill="url(#side)" d="M158 44h62v177h-87v-32h30V96h-39l34-52Z"/>
  <path fill="#fff" d="M161 96h2v93h-30l28-93Z"/>
  <path fill="url(#panel)" d="M37 221 101 37h91l-65 184H37Z"/>

  <g clip-path="url(#panelClip)" fill="none" stroke="#fff" stroke-linecap="square" stroke-width="5">
    <path d="M119 37 55 221"/>
    <path d="M139 37 75 221"/>
    <path d="M159 37 95 221"/>
    <path d="M179 37 115 221"/>
    <path d="M82 69h120"/>
    <path d="M71 101h119"/>
    <path d="M60 133h119"/>
    <path d="M49 165h119"/>
    <path d="M38 197h118"/>
  </g>
</svg>
