<svg xmlns="http://www.w3.org/2000/svg" viewBox="0 0 760 640" role="img" aria-labelledby="title desc">
  <title id="title">Dazzler Renewables logo</title>
  <desc id="desc">Dazzler Renewables wordmark with a refined navy solar panel icon and gold renewable accent.</desc>
  <defs>
    <linearGradient id="panel" x1="262" y1="57" x2="451" y2="357" gradientUnits="userSpaceOnUse">
      <stop offset="0" stop-color="#104f93"/>
      <stop offset="0.5" stop-color="#073a78"/>
      <stop offset="1" stop-color="#001f4c"/>
    </linearGradient>
    <linearGradient id="side" x1="432" y1="77" x2="560" y2="353" gradientUnits="userSpaceOnUse">
      <stop offset="0" stop-color="#083a73"/>
      <stop offset="1" stop-color="#001b45"/>
    </linearGradient>
    <clipPath id="panelClip">
      <path d="M178 353 286 57h167L344 353H178Z"/>
    </clipPath>
  </defs>

  <rect width="760" height="640" fill="#fff"/>

  <g aria-hidden="true">
    <path fill="url(#side)" d="M418 74h119v279H382v-53h56V156h-62l42-82Z"/>
    <path fill="#fff" d="M431 156h7v144h-56l49-144Z"/>
    <path fill="url(#panel)" d="M178 353 286 57h167L344 353H178Z"/>
    <g clip-path="url(#panelClip)" fill="none" stroke="#fff" stroke-linecap="square" stroke-width="9">
      <path d="M321 57 213 353"/>
      <path d="M358 57 250 353"/>
      <path d="M395 57 287 353"/>
      <path d="M432 57 324 353"/>
      <path d="M247 109h223"/>
      <path d="M228 161h223"/>
      <path d="M209 213h223"/>
      <path d="M190 265h223"/>
      <path d="M171 317h223"/>
    </g>
  </g>

  <g fill="#002653" font-family="Inter, Montserrat, Arial, sans-serif" font-weight="500" letter-spacing="28">
    <text x="36" y="485" font-size="70">DAZZLER</text>
  </g>

  <g fill="#c49a4b" font-family="Inter, Montserrat, Arial, sans-serif" font-weight="500" letter-spacing="20">
    <text x="240" y="570" font-size="38">RENEWABLES</text>
  </g>

  <path d="M34 556h72" stroke="#c49a4b" stroke-width="4" stroke-linecap="square"/>
  <path d="M664 556h62" stroke="#c49a4b" stroke-width="4" stroke-linecap="square"/>
</svg>
